<?xml version="1.0" encoding="UTF-8"?>
<svg id="Layer_1" data-name="Layer 1" xmlns="http://www.w3.org/2000/svg" viewBox="0 0 573.66 140.41">
  <defs>
    <style>
      .cls-1 {
        fill: #010101;
      }
    </style>
  </defs>
  <path class="cls-1" d="M56.58.16v16.32h-30.12v42.13h25.3v16.32h-25.3v49.16h30.12v16.32H0V.16h56.58Z"/>
  <path class="cls-1" d="M87.77.16l12.57,112.8L113.1.16h24.12l-16.41,140.26h-40.75L63.65.16h24.12Z"/>
  <path class="cls-1" d="M204.04.16v16.32h-30.12v42.13h25.3v16.32h-25.3v49.16h30.12v16.32h-56.58V.16h56.58Z"/>
  <path class="cls-1" d="M250.77,0c21.82,0,34.76,4.52,34.76,27.87v112.55h-26.46V32.8c0-12.15-1.99-16.39-10.3-16.39-2.9,0-5.15-.12-7.28.44v123.56h-26.46V.16c8.85,0,26.84-.16,35.73-.16Z"/>
  <path class="cls-1" d="M292.87.16h73.97v16.32h-23.75v123.94h-26.46V16.48h-23.75V.16Z"/>
  <path class="cls-1" d="M432.68.16v16.32h-30.12v42.13h25.3v16.32h-25.3v49.16h30.12v16.32h-56.58V.16h56.58Z"/>
  <path class="cls-1" d="M500.26.16v16.32h-30.12v42.13h25.3v16.32h-25.3v49.16h30.12v16.32h-56.58V.16h56.58Z"/>
  <path class="cls-1" d="M541.02,16.48h-33.79V.16h65.85l-35.53,123.94h36.11v16.32h-68.17l35.53-123.94Z"/>
</svg>